<?xml version="1.0" encoding="utf-8"?>
<!-- Generator: Adobe Illustrator 24.1.1, SVG Export Plug-In . SVG Version: 6.00 Build 0)  -->
<svg version="1.1" id="Layer_1" xmlns="http://www.w3.org/2000/svg" xmlns:xlink="http://www.w3.org/1999/xlink" x="0px" y="0px"
	 viewBox="0 0 500 500" style="enable-background:new 0 0 500 500;" xml:space="preserve">
<style type="text/css">
	.st0{fill:url(#SVGID_1_);}
</style>
<linearGradient id="SVGID_1_" gradientUnits="userSpaceOnUse" x1="-0.3002" y1="-0.2998" x2="501.5999" y2="501.6003">
	<stop  offset="0" style="stop-color:#FF5B94"/>
	<stop  offset="1" style="stop-color:#8441A4"/>
</linearGradient>
<path class="st0" d="M297.5,497.5h-95v-53.2c-19.9-4.8-38.8-12.7-56.3-23.3l-37.6,37.6l-67.2-67.2L79,353.8
	c-10.7-17.5-18.5-36.4-23.3-56.3H2.5v-95h53.2c4.8-19.9,12.7-38.8,23.3-56.3l-37.6-37.6l67.2-67.2L146.2,79
	c17.5-10.7,36.4-18.5,56.3-23.3V2.5h95v53.2c19.9,4.8,38.8,12.7,56.3,23.3l37.6-37.6l67.2,67.2L421,146.2
	c10.7,17.5,18.5,36.4,23.3,56.3h53.2v95h-53.2c-4.8,19.9-12.7,38.8-23.3,56.3l37.6,37.6l-67.2,67.2L353.8,421
	c-17.5,10.7-36.4,18.5-56.3,23.3V497.5z M232.5,467.5h35v-47.9l12.4-2.2c24.3-4.3,47-13.7,67.3-27.9l10.3-7.2l33.9,33.9l24.7-24.7
	l-33.9-33.9l7.2-10.3c14.2-20.3,23.6-43,27.9-67.3l2.2-12.4h47.9v-35h-47.9l-2.2-12.4c-4.3-24.3-13.7-47-27.9-67.3l-7.2-10.3
	l33.9-33.9l-24.7-24.7l-33.9,33.9l-10.3-7.2c-20.3-14.2-43-23.6-67.3-27.9l-12.4-2.2V32.5h-35v47.9l-12.4,2.2
	c-24.3,4.3-47,13.7-67.3,27.9l-10.3,7.2l-33.9-33.9l-24.7,24.7l33.9,33.9l-7.2,10.3c-14.2,20.3-23.6,43-27.9,67.3l-2.2,12.4H32.5v35
	h47.9l2.2,12.4c4.3,24.3,13.7,47,27.9,67.3l7.2,10.3l-33.9,33.9l24.7,24.7l33.9-33.9l10.3,7.2c20.3,14.2,43,23.6,67.3,27.9l12.4,2.2
	V467.5z M253.1,390c-79.7,1.8-144.9-63.4-143.1-143.1c1.6-74.6,62.3-135.2,136.8-136.8c79.7-1.8,144.9,63.4,143.1,143.1
	C388.3,327.7,327.7,388.3,253.1,390z M253.6,140.1C190.1,138,138,190.1,140.1,253.6c1.9,57.6,48.7,104.4,106.3,106.3
	c63.5,2.1,115.7-50.1,113.6-113.6C358.1,188.7,311.3,141.9,253.6,140.1z"/>
</svg>
