<svg id="Capa_1" enable-background="new 0 0 512 512" height="512" viewBox="0 0 512 512" width="512" xmlns="http://www.w3.org/2000/svg" xmlns:xlink="http://www.w3.org/1999/xlink"><linearGradient id="SVGID_1_" gradientUnits="userSpaceOnUse" x1="256" x2="256" y1="512" y2="0"><stop offset="0" stop-color="#a93aff"/><stop offset="1" stop-color="#ff81ff"/></linearGradient><g><g><g><path d="m226 151c0-8.284-6.716-15-15-15s-15 6.716-15 15c0 16.542-13.458 30-30 30s-30-13.458-30-30c0-8.284-6.716-15-15-15s-15 6.716-15 15c0 33.084 26.916 60 60 60s60-26.916 60-60zm120 60c33.084 0 60-26.916 60-60 0-8.284-6.716-15-15-15s-15 6.716-15 15c0 16.542-13.458 30-30 30s-30-13.458-30-30c0-8.284-6.716-15-15-15s-15 6.716-15 15c0 33.084 26.916 60 60 60zm-90 60c-31.009 0-60 30.539-60 75 0 44.903 29.308 75 60 75 31.009 0 60-30.539 60-75 0-44.904-29.308-75-60-75zm0 120c-16.262 0-30-20.607-30-45s13.738-45 30-45 30 20.607 30 45-13.738 45-30 45zm165-90h-23.787l34.393-34.393c5.886-5.885 5.809-15.405 0-21.213-.117-.075-4.136-4.394-10.609-4.393h-59.997c-8.284 0-15 6.716-15 15s6.716 15 15 15h23.787l-34.393 34.393c-5.764 5.763-5.932 15.282 0 21.213 2.966 2.812 6.325 4.393 10.606 4.393h60c8.284 0 15-6.716 15-15s-6.716-15-15-15zm-165-301c-140.959 0-256 115.049-256 256 0 140.959 115.05 256 256 256 140.96 0 256-115.049 256-256 0-140.96-115.049-256-256-256zm0 482c-124.617 0-226-101.383-226-226s101.383-226 226-226 226 101.383 226 226-101.383 226-226 226z" fill="url(#SVGID_1_)"/></g></g></g></svg>