<svg id="Capa_1" enable-background="new 0 0 512 512" height="512" viewBox="0 0 512 512" width="512" xmlns="http://www.w3.org/2000/svg" xmlns:xlink="http://www.w3.org/1999/xlink"><linearGradient id="SVGID_1_" gradientUnits="userSpaceOnUse" x1="256" x2="256" y1="512" y2="0"><stop offset="0" stop-color="#00b59c"/><stop offset="1" stop-color="#9cffac"/></linearGradient><g><g><g><path d="m211 196v-30c0-8.284-6.716-15-15-15-10.534 0-75.727 0-90 0-8.284 0-15 6.716-15 15s6.716 15 15 15h15v15c0 24.813 20.187 45 45 45s45-20.187 45-45zm-30 0c0 8.271-6.729 15-15 15s-15-6.729-15-15v-15h30zm75 45c-44.251 0-75 43.437-75 90 0 46.834 30.977 90 75 90 44.251 0 75-43.437 75-90 0-46.834-30.977-90-75-90zm0 150c-24.813 0-45-26.916-45-60s20.187-60 45-60 45 26.916 45 60-20.187 60-45 60zm0-391c-140.959 0-256 115.049-256 256 0 140.96 115.049 256 256 256 140.959 0 256-115.049 256-256 0-140.96-115.049-256-256-256zm0 482c-124.617 0-226-101.383-226-226s101.383-226 226-226 226 101.383 226 226-101.383 226-226 226zm120-331c-10.534 0-75.727 0-90 0-8.284 0-15 6.716-15 15s6.716 15 15 15h15v15c0 24.813 20.187 45 45 45s45-20.187 45-45v-30c0-8.284-6.716-15-15-15zm-15 45c0 8.271-6.729 15-15 15s-15-6.729-15-15v-15h30z" fill="url(#SVGID_1_)"/></g></g></g></svg>