<svg id="Capa_1" enable-background="new 0 0 512 512" height="512" viewBox="0 0 512 512" width="512" xmlns="http://www.w3.org/2000/svg" xmlns:xlink="http://www.w3.org/1999/xlink"><linearGradient id="SVGID_1_" gradientUnits="userSpaceOnUse" x1="256" x2="256" y1="512" y2="0"><stop offset="0" stop-color="#fd3a84"/><stop offset="1" stop-color="#ffa68d"/></linearGradient><g><g><g><path d="m137.713 242.818 28.287-14.871 28.287 14.872c5.096 2.678 11.216 2.187 15.798-1.142 4.619-3.356 6.932-9.044 5.967-14.671l-5.403-31.498 22.885-22.307c4.089-3.985 5.561-9.946 3.796-15.376-1.764-5.43-6.458-9.388-12.108-10.209l-31.626-4.595-14.144-28.658c-2.528-5.122-7.742-8.363-13.452-8.363s-10.924 3.241-13.451 8.361l-14.144 28.658-31.626 4.595c-5.65.821-10.345 4.779-12.108 10.209-1.765 5.43-.293 11.391 3.796 15.376l22.885 22.307-5.403 31.498c-.965 5.627 1.348 11.315 5.967 14.671s10.742 3.801 15.797 1.143zm12.81-71.244c4.886-.71 9.108-3.778 11.294-8.206l4.183-8.475 4.183 8.475c2.186 4.427 6.408 7.496 11.294 8.206l9.353 1.359-6.768 6.597c-3.536 3.446-5.149 8.411-4.314 13.277l1.598 9.314-8.364-4.398c-4.37-2.297-9.59-2.297-13.961 0l-8.364 4.398 1.598-9.314c.835-4.866-.778-9.831-4.314-13.277l-6.768-6.597zm225.477 99.426h-240c-8.284 0-15 6.716-15 15 0 74.439 60.561 135 135 135s135-60.561 135-135c0-8.284-6.716-15-15-15zm-120 120c-52.805 0-96.623-39.183-103.924-90h207.848c-7.301 50.817-51.119 90-103.924 90zm161.329-233.176c-1.764-5.43-6.458-9.388-12.108-10.209l-31.626-4.595-14.144-28.658c-2.527-5.121-7.741-8.362-13.451-8.362s-10.924 3.241-13.451 8.361l-14.144 28.658-31.626 4.595c-5.65.821-10.345 4.779-12.108 10.209-1.765 5.43-.293 11.391 3.796 15.376l22.885 22.307-5.403 31.498c-.965 5.627 1.348 11.315 5.967 14.671 4.619 3.355 10.743 3.799 15.798 1.142l28.286-14.87 28.287 14.872c5.096 2.678 11.216 2.187 15.798-1.142 4.619-3.356 6.932-9.044 5.967-14.671l-5.403-31.498 22.885-22.307c4.088-3.986 5.56-9.947 3.795-15.377zm-53.267 21.705c-3.536 3.446-5.149 8.411-4.314 13.277l1.598 9.314-8.364-4.398c-4.37-2.297-9.59-2.297-13.961 0l-8.364 4.398 1.598-9.314c.835-4.866-.778-9.831-4.314-13.277l-6.768-6.597 9.353-1.359c4.886-.71 9.108-3.778 11.294-8.206l4.183-8.475 4.183 8.475c2.186 4.427 6.408 7.496 11.294 8.206l9.353 1.359zm-108.062-179.529c-140.959 0-256 115.049-256 256 0 140.96 115.049 256 256 256 140.959 0 256-115.049 256-256 0-140.96-115.049-256-256-256zm0 482c-124.617 0-226-101.383-226-226s101.383-226 226-226 226 101.383 226 226-101.383 226-226 226z" fill="url(#SVGID_1_)"/></g></g></g></svg>