<svg id="Capa_1" enable-background="new 0 0 512 512" height="512" viewBox="0 0 512 512" width="512" xmlns="http://www.w3.org/2000/svg" xmlns:xlink="http://www.w3.org/1999/xlink"><linearGradient id="SVGID_1_" gradientUnits="userSpaceOnUse" x1="256" x2="256" y1="512" y2="0"><stop offset="0" stop-color="#00b59c"/><stop offset="1" stop-color="#9cffac"/></linearGradient><g><g><g><path d="m256 0c-140.95 0-256 115.041-256 256 0 140.95 115.041 256 256 256 140.951 0 256-115.041 256-256 0-140.951-115.04-256-256-256zm0 482c-124.617 0-226-101.383-226-226s101.383-226 226-226 226 101.383 226 226-101.383 226-226 226zm-121.82-232.967c5.858-5.858 5.858-15.355 0-21.213-8.5-8.5-13.18-19.8-13.18-31.82 0-24.813 20.187-45 45-45s45 20.187 45 45c0 8.271-6.729 15-15 15s-15-6.729-15-15c0-8.284-6.716-15-15-15s-15 6.716-15 15c0 24.813 20.187 45 45 45s45-20.187 45-45c0-41.355-33.645-75-75-75s-75 33.645-75 75c0 20.033 7.801 38.867 21.967 53.033 5.858 5.858 15.356 5.858 21.213 0zm231.214 86.36-19.394 19.394-19.394-19.394c-5.857-5.858-15.355-5.858-21.213 0l-19.393 19.394-19.394-19.394c-5.857-5.858-15.355-5.858-21.213 0l-19.393 19.394-19.394-19.394c-5.857-5.858-15.355-5.858-21.213 0l-19.393 19.394-19.394-19.394c-5.857-5.858-15.355-5.858-21.213 0s-5.858 15.355 0 21.213l30 30c5.857 5.858 15.355 5.858 21.213 0l19.394-19.393 19.394 19.394c5.857 5.858 15.355 5.858 21.213 0l19.393-19.394 19.394 19.394c5.857 5.858 15.355 5.858 21.213 0l19.393-19.394 19.394 19.394c5.858 5.858 15.356 5.857 21.213 0l30-30c5.858-5.858 5.858-15.355 0-21.213-5.858-5.859-15.356-5.859-21.213-.001zm-19.394-214.393c-41.355 0-75 33.645-75 75 0 24.813 20.187 45 45 45s45-20.187 45-45c0-8.284-6.716-15-15-15s-15 6.716-15 15c0 8.271-6.729 15-15 15s-15-6.729-15-15c0-24.813 20.187-45 45-45s45 20.187 45 45c0 12.02-4.681 23.321-13.18 31.82-5.858 5.858-5.857 15.355 0 21.213 5.858 5.858 15.356 5.857 21.213 0 14.166-14.166 21.967-33 21.967-53.033 0-41.355-33.645-75-75-75z" fill="url(#SVGID_1_)"/></g></g></g></svg>