<svg id="Capa_1" enable-background="new 0 0 512 512" height="512" viewBox="0 0 512 512" width="512" xmlns="http://www.w3.org/2000/svg" xmlns:xlink="http://www.w3.org/1999/xlink"><linearGradient id="SVGID_1_" gradientUnits="userSpaceOnUse" x1="256" x2="256" y1="512" y2="0"><stop offset="0" stop-color="#fd5900"/><stop offset="1" stop-color="#ffde00"/></linearGradient><g><g><g><path d="m180.009 130.637c-2.963-7.737-11.634-11.606-19.372-8.646l-60 22.971c-7.736 2.962-11.607 11.635-8.646 19.372 2.966 7.746 11.642 11.604 19.372 8.646l60-22.971c7.737-2.963 11.608-11.635 8.646-19.372zm171.354-8.646c-7.737-2.962-16.409.908-19.372 8.646-2.962 7.737.909 16.409 8.646 19.372l60 22.971c7.703 2.949 16.396-.875 19.372-8.646 2.962-7.737-.909-16.409-8.646-19.372zm144.747 220.183c10.547-28.785 15.89-57.717 15.89-86.174 0-140.96-115.049-256-256-256-140.959 0-256 115.049-256 256 0 140.959 115.049 256 256 256 77.491 0 148.374-35.539 196.233-93.185 5.657 1.371 10.423 2.185 13.767 2.185 24.859 0 46-20.092 46-45 0-12.51-5.327-24.79-15.89-33.826zm-30.101 48.826c-7.975-.112-41.093-12.227-48.605-15 22.73-8.392 42.861-14.92 48.597-15 8.179 0 16 6.758 16 15-.001 7.991-7.478 15-15.992 15zm2.221-59.946c-.741-.036-1.484-.054-2.23-.054-17.271 0-72.376 21.664-92.935 30h-12.065v-15c0-8.284-6.716-15-15-15s-15 6.716-15 15v15h-30v-15c0-8.284-6.716-15-15-15s-15 6.716-15 15v15h-30v-15c0-8.284-6.716-15-15-15s-15 6.716-15 15v15h-30v-15c0-8.284-6.716-15-15-15s-15 6.716-15 15v15h-15c-8.284 0-15 6.716-15 15s6.716 15 15 15h45v15c0 8.284 6.716 15 15 15s15-6.716 15-15v-15h30v15c0 8.284 6.716 15 15 15s15-6.716 15-15v-15h30v15c0 8.284 6.716 15 15 15s15-6.716 15-15v-15h42.065c10.299 4.176 29.267 11.696 47.806 18.162-42.865 46.53-101.858 72.838-164.871 72.838-124.617 0-226-101.383-226-226s101.383-226 226-226 226 101.383 226 226c0 24.655-4.632 49.849-13.77 75.054zm-302.23-150.054c-24.813 0-45 20.187-45 45s20.187 45 45 45 45-20.187 45-45-20.187-45-45-45zm0 60c-8.271 0-15-6.729-15-15s6.729-15 15-15 15 6.729 15 15-6.729 15-15 15zm180-60c-24.813 0-45 20.187-45 45s20.187 45 45 45 45-20.187 45-45-20.187-45-45-45zm0 60c-8.271 0-15-6.729-15-15s6.729-15 15-15 15 6.729 15 15-6.729 15-15 15z" fill="url(#SVGID_1_)"/></g></g></g></svg>