<svg id="Capa_1" enable-background="new 0 0 512 512" height="512" viewBox="0 0 512 512" width="512" xmlns="http://www.w3.org/2000/svg" xmlns:xlink="http://www.w3.org/1999/xlink"><linearGradient id="SVGID_1_" gradientUnits="userSpaceOnUse" x1="256" x2="256" y1="512" y2="0"><stop offset="0" stop-color="#5558ff"/><stop offset="1" stop-color="#00c0ff"/></linearGradient><g><g><g><path d="m256 0c-140.763 0-256 115.845-256 257 0 105.026 64.829 197.343 159.329 236.033 8.164 11.467 21.554 18.967 36.671 18.967h120c15.117 0 28.507-7.5 36.671-18.967 94.429-38.661 159.329-130.932 159.329-236.033 0-140.874-114.957-257-256-257zm60 482h-120c-8.271 0-15-6.729-15-15s6.729-15 15-15c8.284 0 15-6.716 15-15v-105h90v105c0 8.284 6.716 15 15 15 8.271 0 15 6.729 15 15s-6.729 15-15 15zm43.8-25.321c-3.521-14.946-14.51-27.042-28.8-32.108v-92.571h15c8.284 0 15-6.716 15-15s-6.716-15-15-15h-180c-8.284 0-15 6.716-15 15s6.716 15 15 15h15v92.57c-14.29 5.067-25.279 17.163-28.8 32.108-73.979-38.505-122.2-115.909-122.2-199.678 0-125.168 101.383-227 226-227s226 101.832 226 227c0 83.769-48.221 161.173-122.2 199.679zm-153.194-300.286c-5.857-5.858-15.355-5.858-21.213 0l-19.393 19.394-19.394-19.394c-5.857-5.858-15.355-5.858-21.213 0s-5.858 15.355 0 21.213l19.394 19.394-19.393 19.393c-5.858 5.858-5.858 15.355 0 21.213 5.857 5.857 15.355 5.858 21.213 0l19.393-19.393 19.394 19.394c5.857 5.857 15.355 5.858 21.213 0s5.858-15.355 0-21.213l-19.394-19.394 19.393-19.393c5.858-5.858 5.858-15.356 0-21.214zm180 0c-5.857-5.858-15.355-5.858-21.213 0l-19.393 19.394-19.394-19.394c-5.857-5.858-15.355-5.858-21.213 0s-5.858 15.355 0 21.213l19.394 19.394-19.393 19.393c-5.858 5.858-5.858 15.355 0 21.213 5.857 5.857 15.355 5.858 21.213 0l19.393-19.393 19.394 19.394c5.857 5.857 15.355 5.858 21.213 0s5.858-15.355 0-21.213l-19.394-19.394 19.393-19.393c5.858-5.858 5.858-15.356 0-21.214z" fill="url(#SVGID_1_)"/></g></g></g></svg>