<svg id="Capa_1" enable-background="new 0 0 512 512" height="512" viewBox="0 0 512 512" width="512" xmlns="http://www.w3.org/2000/svg" xmlns:xlink="http://www.w3.org/1999/xlink"><linearGradient id="SVGID_1_" gradientUnits="userSpaceOnUse" x1="256" x2="256" y1="512" y2="0"><stop offset="0" stop-color="#00b59c"/><stop offset="1" stop-color="#9cffac"/></linearGradient><g><g><g><path d="m203.49 260.942c35.814-20.677 48.129-66.637 27.452-102.452l-15-25.981c-4.142-7.175-13.315-9.632-20.49-5.49l-103.923 60c-7.173 4.142-9.63 13.321-5.49 20.49l15 25.981c20.545 35.586 66.409 48.26 102.451 27.452zm-76.471-42.452-7.5-12.99 38.969-22.499c-7.172 4.143-9.63 13.315-5.488 20.489s13.316 9.632 20.49 5.49 9.633-13.316 5.49-20.49c-4.142-7.174-13.314-9.632-20.488-5.492l38.969-22.499 7.5 12.99c12.406 21.489 5.017 49.064-16.471 61.471-21.489 12.409-49.065 5.018-61.471-16.47zm128.981-218.49c-140.951 0-256 115.041-256 256 0 140.95 115.041 256 256 256 140.95 0 256-115.041 256-256 0-140.951-115.041-256-256-256zm0 482c-124.617 0-226-101.383-226-226s101.383-226 226-226 226 101.383 226 226-101.383 226-226 226zm164.472-294.981-103.923-60c-7.176-4.142-16.349-1.684-20.49 5.49l-15 25.981c-20.677 35.814-8.363 81.774 27.452 102.452 35.967 20.765 81.87 8.198 102.452-27.452l15-25.981c4.141-7.173 1.678-16.351-5.491-20.49zm-35.491 31.471c-12.407 21.489-39.981 28.879-61.472 16.471-21.488-12.407-28.877-39.982-16.471-61.471l7.5-12.99 38.969 22.499c-7.174-4.141-16.347-1.682-20.488 5.491-4.142 7.174-1.684 16.348 5.49 20.49s16.348 1.684 20.49-5.49 1.684-16.347-5.489-20.489l38.97 22.499zm-128.981 82.51c-57.897 0-105 47.103-105 105 0 8.284 6.716 15 15 15h180c8.284 0 15-6.716 15-15 0-57.897-47.103-105-105-105zm-73.493 90c6.969-34.191 37.274-60 73.493-60s66.524 25.809 73.493 60z" fill="url(#SVGID_1_)"/></g></g></g></svg>