<svg id="Capa_1" enable-background="new 0 0 512 512" height="512" viewBox="0 0 512 512" width="512" xmlns="http://www.w3.org/2000/svg" xmlns:xlink="http://www.w3.org/1999/xlink"><linearGradient id="SVGID_1_" gradientUnits="userSpaceOnUse" x1="256" x2="256" y1="512" y2="0"><stop offset="0" stop-color="#fd5900"/><stop offset="1" stop-color="#ffde00"/></linearGradient><g><g><g><path d="m196 196c0 8.284 6.716 15 15 15s15-6.716 15-15c0-33.084-26.916-60-60-60s-60 26.916-60 60c0 8.284 6.716 15 15 15s15-6.716 15-15c0-16.542 13.458-30 30-30s30 13.458 30 30zm-90 45h-30c-8.284 0-15 6.716-15 15s6.716 15 15 15h30c8.284 0 15-6.716 15-15s-6.716-15-15-15zm330 0h-30c-8.284 0-15 6.716-15 15s6.716 15 15 15h30c8.284 0 15-6.716 15-15s-6.716-15-15-15zm-180-241c-140.959 0-256 115.049-256 256 0 140.959 115.05 256 256 256 140.96 0 256-115.049 256-256 0-140.96-115.049-256-256-256zm0 482c-124.617 0-226-101.383-226-226s101.383-226 226-226 226 101.383 226 226-101.383 226-226 226zm150-286c0-33.084-26.916-60-60-60s-60 26.916-60 60c0 8.284 6.716 15 15 15s15-6.716 15-15c0-16.542 13.458-30 30-30s30 13.458 30 30c0 8.284 6.716 15 15 15s15-6.716 15-15zm-60 75h-180c-8.284 0-15 6.716-15 15s6.716 15 15 15h15v45c0 41.355 33.645 75 75 75s75-33.645 75-75v-45h15c8.284 0 15-6.716 15-15s-6.716-15-15-15zm-45 75c0 24.813-20.187 45-45 45s-45-20.187-45-45v-45h90z" fill="url(#SVGID_1_)"/></g></g></g></svg>