<svg id="Capa_1" enable-background="new 0 0 512 512" height="512" viewBox="0 0 512 512" width="512" xmlns="http://www.w3.org/2000/svg" xmlns:xlink="http://www.w3.org/1999/xlink"><linearGradient id="SVGID_1_" gradientUnits="userSpaceOnUse" x1="256" x2="256" y1="512" y2="0"><stop offset="0" stop-color="#a93aff"/><stop offset="1" stop-color="#ff81ff"/></linearGradient><g><g><g><path d="m181 136c0-8.284-6.716-15-15-15-25.86 0-50.724 9.518-70.01 26.8-6.17 5.528-6.689 15.012-1.161 21.181 5.533 6.176 15.018 6.684 21.181 1.161 13.776-12.344 31.529-19.142 49.99-19.142 8.284 0 15-6.716 15-15zm30 90c0-24.813-20.187-45-45-45s-45 20.187-45 45 20.187 45 45 45 45-20.187 45-45zm-45 15c-8.271 0-15-6.729-15-15s6.729-15 15-15 15 6.729 15 15-6.729 15-15 15zm90-241c-140.959 0-256 115.049-256 256 0 140.959 115.049 256 256 256 140.959 0 256-115.049 256-256 0-140.96-115.049-256-256-256zm0 482c-124.617 0-226-101.383-226-226s101.383-226 226-226 226 101.383 226 226-101.383 226-226 226zm160.01-334.2c-19.286-17.282-44.15-26.8-70.01-26.8-8.284 0-15 6.716-15 15s6.716 15 15 15c18.461 0 36.214 6.798 49.99 19.142 6.152 5.514 15.638 5.026 21.181-1.161 5.528-6.169 5.009-15.653-1.161-21.181zm-88.01 159.2c-4.971-6.628-14.372-7.97-21-3l-51 38.25-51-38.25c-6.627-4.971-16.03-3.627-21 3-4.971 6.627-3.627 16.03 3 21l44 33-44 33c-6.627 4.97-7.971 14.373-3 21 4.946 6.594 14.341 7.994 21 3l51-38.25 51 38.25c6.597 4.948 16.008 3.657 21-3 4.971-6.627 3.627-16.03-3-21l-44-33 44-33c6.627-4.97 7.971-14.373 3-21zm18-126c-24.813 0-45 20.187-45 45s20.187 45 45 45 45-20.187 45-45-20.187-45-45-45zm0 60c-8.271 0-15-6.729-15-15s6.729-15 15-15 15 6.729 15 15-6.729 15-15 15z" fill="url(#SVGID_1_)"/></g></g></g></svg>