<svg id="Capa_1" enable-background="new 0 0 512 512" height="512" viewBox="0 0 512 512" width="512" xmlns="http://www.w3.org/2000/svg" xmlns:xlink="http://www.w3.org/1999/xlink"><linearGradient id="SVGID_1_" gradientUnits="userSpaceOnUse" x1="256" x2="256" y1="512" y2="0"><stop offset="0" stop-color="#fd3a84"/><stop offset="1" stop-color="#ffa68d"/></linearGradient><g><g><g><path d="m162.03 150.465 60 16.468c7.948 2.183 16.231-2.467 18.435-10.495 2.193-7.989-2.506-16.243-10.495-18.435l-60-16.468c-7.982-2.192-16.241 2.506-18.435 10.495-2.193 7.989 2.506 16.242 10.495 18.435zm127.94 16.468 60-16.468c7.989-2.193 12.688-10.447 10.495-18.435s-10.444-12.688-18.435-10.495l-60 16.468c-7.989 2.193-12.688 10.447-10.495 18.435 2.203 8.025 10.481 12.678 18.435 10.495zm-33.97-166.933c-140.951 0-256 115.04-256 256 0 140.951 115.041 256 256 256 140.951 0 256-115.041 256-256 0-140.951-115.041-256-256-256zm0 482c-124.617 0-226-101.383-226-226s101.383-226 226-226 226 101.383 226 226-101.383 226-226 226zm90-301c-24.813 0-45 20.187-45 45s20.187 45 45 45 45-20.187 45-45-20.187-45-45-45zm0 60c-8.271 0-15-6.729-15-15s6.729-15 15-15 15 6.729 15 15-6.729 15-15 15zm-90 30c-57.897 0-105 47.103-105 105 0 8.284 6.716 15 15 15h180c8.284 0 15-6.716 15-15 0-57.897-47.103-105-105-105zm-73.493 90c6.97-34.191 37.274-60 73.493-60s66.523 25.809 73.493 60zm28.493-135c0-24.813-20.187-45-45-45s-45 20.187-45 45 20.187 45 45 45 45-20.187 45-45zm-60 0c0-8.271 6.729-15 15-15s15 6.729 15 15-6.729 15-15 15-15-6.729-15-15z" fill="url(#SVGID_1_)"/></g></g></g></svg>