<svg id="Capa_1" enable-background="new 0 0 512 512" height="512" viewBox="0 0 512 512" width="512" xmlns="http://www.w3.org/2000/svg" xmlns:xlink="http://www.w3.org/1999/xlink"><linearGradient id="SVGID_1_" gradientUnits="userSpaceOnUse" x1="256" x2="256" y1="512" y2="0"><stop offset="0" stop-color="#00b59c"/><stop offset="1" stop-color="#9cffac"/></linearGradient><g><g><g><path d="m211 196c0-24.813-20.187-45-45-45s-45 20.187-45 45 20.187 45 45 45 45-20.187 45-45zm-60 0c0-8.271 6.729-15 15-15s15 6.729 15 15-6.729 15-15 15-15-6.729-15-15zm225-15h-53.787l34.393-34.393c5.858-5.858 5.858-15.355 0-21.213-5.857-5.858-15.355-5.858-21.213 0l-60 60c-5.797 5.796-5.88 15.334 0 21.213 2.987 2.831 6.354 4.393 10.607 4.393h90c8.284 0 15-6.716 15-15s-6.716-15-15-15zm0 60c-8.284 0-15 6.716-15 15 0 57.897-47.103 105-105 105-27.995 0-54.348-10.936-74.206-30.794-5.858-5.858-15.355-5.858-21.213 0s-5.858 15.355 0 21.213c25.523 25.524 59.411 39.581 95.419 39.581 74.439 0 135-60.561 135-135 0-8.284-6.716-15-15-15zm-120-241c-140.959 0-256 115.049-256 256 0 140.958 115.049 256 256 256 140.958 0 256-115.05 256-256 0-140.959-115.049-256-256-256zm0 482c-124.617 0-226-101.383-226-226s101.383-226 226-226 226 101.383 226 226-101.383 226-226 226z" fill="url(#SVGID_1_)"/></g></g></g></svg>