<svg id="Capa_1" enable-background="new 0 0 512 512" height="512" viewBox="0 0 512 512" width="512" xmlns="http://www.w3.org/2000/svg" xmlns:xlink="http://www.w3.org/1999/xlink"><linearGradient id="SVGID_1_" gradientUnits="userSpaceOnUse" x1="256" x2="256" y1="512" y2="0"><stop offset="0" stop-color="#5558ff"/><stop offset="1" stop-color="#00c0ff"/></linearGradient><g><g><g><path d="m241 196c0-41.355-33.645-75-75-75s-75 33.645-75 75 33.645 75 75 75 75-33.645 75-75zm-85.607 10.606c-5.858-5.858-15.355-5.858-21.213 0-5.669 5.669-5.835 14.737-.531 20.626-7.822-8.099-12.649-19.109-12.649-31.232 0-24.813 20.187-45 45-45s45 20.187 45 45-20.187 45-45 45c-12.123 0-23.133-4.827-31.232-12.649 5.889 5.304 14.957 5.138 20.626-.531 5.857-5.858 5.857-15.356-.001-21.214zm100.607-206.606c-140.959 0-256 115.049-256 256 0 140.958 115.049 256 256 256 140.958 0 256-115.05 256-256 0-140.959-115.05-256-256-256zm0 482c-124.617 0-226-101.383-226-226s101.383-226 226-226 226 101.383 226 226-101.383 226-226 226zm90-181c-8.284 0-15 6.716-15 15 0 8.271-6.729 15-15 15h-120c-24.813 0-45 20.187-45 45 0 8.284 6.716 15 15 15s15-6.716 15-15c0-8.271 6.729-15 15-15h120c24.813 0 45-20.187 45-45 0-8.284-6.716-15-15-15zm0-180c-41.355 0-75 33.645-75 75s33.645 75 75 75 75-33.645 75-75-33.645-75-75-75zm0 120c-24.813 0-45-20.187-45-45s20.187-45 45-45c12.122 0 23.132 4.827 31.231 12.648-5.889-5.303-14.956-5.137-20.625.532-5.858 5.858-5.858 15.355 0 21.213s15.355 5.858 21.213 0c5.669-5.669 5.835-14.736.532-20.625 7.822 8.1 12.649 19.11 12.649 31.232 0 24.813-20.187 45-45 45z" fill="url(#SVGID_1_)"/></g></g></g></svg>