<svg id="Capa_1" enable-background="new 0 0 512 512" height="512" viewBox="0 0 512 512" width="512" xmlns="http://www.w3.org/2000/svg" xmlns:xlink="http://www.w3.org/1999/xlink"><linearGradient id="SVGID_1_" gradientUnits="userSpaceOnUse" x1="256" x2="256" y1="512" y2="0"><stop offset="0" stop-color="#fd5900"/><stop offset="1" stop-color="#ffde00"/></linearGradient><g><g><g><path d="m226 211c0-8.284-6.716-15-15-15s-15 6.716-15 15c0 16.542-13.458 30-30 30s-30-13.458-30-30c0-8.284-6.716-15-15-15s-15 6.716-15 15c0 33.084 26.916 60 60 60s60-26.916 60-60zm-100.01-63.829c19.286 17.282 44.149 26.8 70.01 26.8 8.284 0 15-6.716 15-15s-6.716-15-15-15c-18.461 0-36.214-6.798-49.99-19.142-6.169-5.528-15.652-5.008-21.181 1.161-5.528 6.169-5.009 15.653 1.161 21.181zm190.01 26.8c25.86 0 50.724-9.518 70.01-26.8 6.17-5.528 6.689-15.012 1.161-21.181-5.528-6.17-15.012-6.689-21.181-1.161-13.776 12.344-31.529 19.142-49.99 19.142-8.284 0-15 6.716-15 15s6.716 15 15 15zm-60-173.971c-140.951 0-256 115.041-256 256 0 140.951 115.041 256 256 256 140.951 0 256-115.041 256-256 0-140.951-115.041-256-256-256zm0 482c-124.617 0-226-101.383-226-226s101.383-226 226-226 226 101.383 226 226-101.383 226-226 226zm135-286c-8.284 0-15 6.716-15 15 0 16.542-13.458 30-30 30s-30-13.458-30-30c0-8.284-6.716-15-15-15s-15 6.716-15 15c0 33.084 26.916 60 60 60s60-26.916 60-60c0-8.284-6.716-15-15-15zm-135 105c-57.897 0-105 47.103-105 105 0 8.284 6.716 15 15 15h180c8.284 0 15-6.716 15-15 0-57.897-47.103-105-105-105zm-73.493 90c6.97-34.191 37.274-60 73.493-60s66.523 25.809 73.493 60z" fill="url(#SVGID_1_)"/></g></g></g></svg>