<svg id="Capa_1" enable-background="new 0 0 512 512" height="512" viewBox="0 0 512 512" width="512" xmlns="http://www.w3.org/2000/svg" xmlns:xlink="http://www.w3.org/1999/xlink"><linearGradient id="SVGID_1_" gradientUnits="userSpaceOnUse" x1="256" x2="256" y1="512" y2="0"><stop offset="0" stop-color="#5558ff"/><stop offset="1" stop-color="#00c0ff"/></linearGradient><g><g><g><path d="m346 181h-60c-8.284 0-15 6.716-15 15s6.716 15 15 15h17.58c-1.665 4.695-2.58 9.742-2.58 15 0 24.813 20.187 45 45 45s45-20.187 45-45-20.187-45-45-45zm0 60c-8.271 0-15-6.729-15-15s6.729-15 15-15 15 6.729 15 15-6.729 15-15 15zm-135-15c0-24.813-20.187-45-45-45h-60c-8.284 0-15 6.716-15 15s6.716 15 15 15h17.58c-1.665 4.695-2.58 9.742-2.58 15 0 24.813 20.187 45 45 45s45-20.187 45-45zm-45 15c-8.271 0-15-6.729-15-15s6.729-15 15-15 15 6.729 15 15-6.729 15-15 15zm90-241c-140.959 0-256 115.05-256 256 0 140.959 115.05 256 256 256 140.959 0 256-115.049 256-256 0-140.959-115.049-256-256-256zm0 482c-124.617 0-226-101.383-226-226s101.383-226 226-226 226 101.383 226 226-101.383 226-226 226zm90-181c-8.284 0-15 6.716-15 15 0 24.813-20.187 45-45 45h-90c-8.284 0-15 6.716-15 15s6.716 15 15 15h90c41.355 0 75-33.645 75-75 0-8.284-6.716-15-15-15z" fill="url(#SVGID_1_)"/></g></g></g></svg>