<svg id="Capa_1" enable-background="new 0 0 512 512" height="512" viewBox="0 0 512 512" width="512" xmlns="http://www.w3.org/2000/svg" xmlns:xlink="http://www.w3.org/1999/xlink"><linearGradient id="SVGID_1_" gradientUnits="userSpaceOnUse" x1="256" x2="256" y1="512" y2="0"><stop offset="0" stop-color="#00b59c"/><stop offset="1" stop-color="#9cffac"/></linearGradient><g><g><g><path d="m389.672 190.149c-3.408-7.551-12.292-10.91-19.842-7.502l-113.83 51.373-113.83-51.372c-7.55-3.407-16.435-.048-19.842 7.502-3.408 7.551-.05 16.435 7.502 19.843l33.708 15.212c-7.757 8.088-12.538 19.05-12.538 31.115 0 24.813 20.187 45 45 45 23.544 0 42.909-18.177 44.83-41.232l9 4.062c3.92 1.77 8.418 1.771 12.34 0l9-4.062c1.922 23.055 21.287 41.232 44.83 41.232 24.813 0 45-20.187 45-45 0-12.064-4.781-23.027-12.538-31.115l33.708-15.212c7.552-3.409 10.91-12.293 7.502-19.844zm-193.672 81.171c-8.271 0-15-6.729-15-15s6.729-15 15-15c8.318 0 15 6.747 15 15 0 8.271-6.729 15-15 15zm120 0c-8.271 0-15-6.729-15-15 0-8.278 6.7-15 15-15 8.271 0 15 6.729 15 15s-6.729 15-15 15zm154.405 123.164c26.969-41.495 41.595-89.661 41.595-138.164 0-140.939-115.02-256.32-256-256.32-140.936 0-256 115.339-256 256.32 0 48.503 14.626 96.669 41.595 138.165-8.643 2.892-16.617 7.708-23.36 14.25-11.759 11.408-18.235 26.532-18.235 42.585 0 38.432 31.614 60.608 71.157 60.608 26.282 0 52.915-9.531 73.068-26.149.049-.041.1-.084.149-.125 35.243 17.26 73.614 26.346 111.626 26.346 37.996 0 76.349-9.078 111.579-26.324.06.049.12.102.18.151 20.15 16.633 46.781 26.173 73.062 26.173 39.589 0 71.179-22.258 71.179-60.68 0-26.742-18.002-48.94-41.595-56.836zm-338.087 61.653c-.717.607-1.383 1.285-1.986 2.035-17.013 16.753-41.168 23.755-59.175 23.755-12.339 0-23.177-2.994-30.516-8.431-7.161-5.303-10.641-12.557-10.641-22.176 0-16.262 14.196-30 31-30 11.638 0 21.994 6.622 27.029 17.283 3.162 6.694 10.74 10.083 17.834 7.973 16.495-4.899 31.689-13.911 43.943-25.906-2.548 14.723-8.999 26.406-17.488 35.467zm213.682-124.817c-8.284 0-15 6.716-15 15v60c0 23.655 6.779 42.012 15.748 55.962-28.99 12.923-60.029 19.718-90.748 19.718-30.727 0-61.773-6.798-90.77-19.728 8.98-13.944 15.77-32.298 15.77-55.953v-60c0-8.284-6.716-15-15-15s-15 6.716-15 15c0 29.497-17 55.451-43.276 67.58-7.69-9.592-18.159-16.618-29.858-20.106-30.902-39.919-47.866-88.543-47.866-137.473 0-124.793 101.383-226.32 226-226.32s226 101.527 226 226.32c0 48.93-16.964 97.554-47.866 137.473-11.698 3.488-22.167 10.515-29.858 20.106-26.276-12.128-43.276-38.083-43.276-67.579 0-8.284-6.716-15-15-15zm125.345 142.236c-7.342 5.445-18.183 8.444-30.523 8.444-17.943 0-41.992-6.963-58.991-23.614-1.58-2.041-15.476-13.6-19.64-37.72 12.254 11.996 27.45 21.009 43.946 25.909 7.099 2.109 14.672-1.278 17.834-7.973 5.035-10.661 15.392-17.283 27.029-17.283 16.804 0 31 13.738 31 30 0 9.646-3.485 16.92-10.655 22.237zm-185.345-112.236h-60c-8.284 0-15 6.716-15 15s6.716 15 15 15h60c8.284 0 15-6.716 15-15s-6.716-15-15-15z" fill="url(#SVGID_1_)"/></g></g></g></svg>