<svg id="Capa_1" enable-background="new 0 0 512 512" height="512" viewBox="0 0 512 512" width="512" xmlns="http://www.w3.org/2000/svg" xmlns:xlink="http://www.w3.org/1999/xlink"><linearGradient id="SVGID_1_" gradientUnits="userSpaceOnUse" x1="256" x2="256" y1="512" y2="0"><stop offset="0" stop-color="#a93aff"/><stop offset="1" stop-color="#ff81ff"/></linearGradient><g><g><g><path d="m497 151c8.284 0 15-6.716 15-15s-6.716-15-15-15h-23.67c-45.341-72.392-125.373-121-217.33-121-91.747 0-171.911 48.484-217.33 121h-23.67c-8.284 0-15 6.716-15 15s6.716 15 15 15h7.57c-14.78 32.627-22.57 68.243-22.57 105 0 140.959 115.05 256 256 256 140.959 0 256-115.05 256-256 0-36.757-7.79-72.373-22.57-105zm-241-121c74.05 0 139.896 35.8 181.141 91-22.49 0-128.623 0-151.141 0-8.284 0-15 6.716-15 15v15h-30v-15c0-8.284-6.716-15-15-15-22.518 0-128.651 0-151.141 0 41.246-55.2 107.091-91 181.141-91zm165 121c0 33.084-26.916 60-60 60s-60-26.916-60-60zm-210 0c0 33.084-26.916 60-60 60s-60-26.916-60-60zm45 331c-124.617 0-226-101.383-226-226 0-37.882 9.383-73.607 25.924-105h5.076c0 49.626 40.374 90 90 90 39.111 0 72.469-25.08 84.852-60h40.296c12.383 34.92 45.741 60 84.852 60 49.626 0 90-40.374 90-90h5.076c16.541 31.393 25.924 67.118 25.924 105 0 124.617-101.383 226-226 226zm120-211h-240c-8.284 0-15 6.716-15 15 0 74.439 60.561 135 135 135s135-60.561 135-135c0-8.284-6.716-15-15-15zm-120 120c-52.805 0-96.631-39.183-103.932-90h207.863c-7.3 50.817-51.126 90-103.931 90z" fill="url(#SVGID_1_)"/></g></g></g></svg>