<svg id="Capa_1" enable-background="new 0 0 512 512" height="512" viewBox="0 0 512 512" width="512" xmlns="http://www.w3.org/2000/svg" xmlns:xlink="http://www.w3.org/1999/xlink"><linearGradient id="SVGID_1_" gradientUnits="userSpaceOnUse" x1="256" x2="256" y1="512" y2="0"><stop offset="0" stop-color="#5558ff"/><stop offset="1" stop-color="#00c0ff"/></linearGradient><g><g><g><path d="m166 151c-33.084 0-60 26.916-60 60 0 8.284 6.716 15 15 15s15-6.716 15-15c0-16.542 13.458-30 30-30s30 13.458 30 30c0 8.284 6.716 15 15 15s15-6.716 15-15c0-33.084-26.916-60-60-60zm180 0c-33.084 0-60 26.916-60 60 0 8.284 6.716 15 15 15s15-6.716 15-15c0-16.542 13.458-30 30-30s30 13.458 30 30c0 8.284 6.716 15 15 15s15-6.716 15-15c0-33.084-26.916-60-60-60zm-90-151c-140.959 0-256 115.049-256 256 0 140.959 115.049 256 256 256 20.074 0 40.94-2.938 63.536-8.947 7.672 5.805 16.842 8.947 26.464 8.947 22.868 0 41.374-17.744 44.517-39.328 75.173-46.727 121.483-128.411 121.483-216.672 0-140.959-115.049-256-256-256zm105 466c0 8.523-7.01 16-15 16-8.168 0-15-7.73-15-16v-70.615c0-8.284-6.716-15-15-15s-15 6.716-15 15v10.615c0 8.271-6.729 15-15 15s-15-6.729-15-15v-30c0-8.284-6.716-15-15-15-32.573 0-63.873-8.452-88.29-30h193.29zm30-29.957v-120.043c0-8.284-6.716-15-15-15h-240c-5.198 0-10.026 2.692-12.76 7.114-2.733 4.422-2.981 9.945-.656 14.594 1.32 2.642 31.786 61.558 118.416 67.764v15.528c0 24.813 20.187 45 45 45 5.257 0 10.307-.906 15-2.57v17.57c0 3.55.415 7.047 1.203 10.443-16.351 3.727-31.591 5.557-46.203 5.557-124.617 0-226-101.383-226-226s101.383-226 226-226 226 101.383 226 226c0 70.789-34.297 137.602-91 180.043z" fill="url(#SVGID_1_)"/></g></g></g></svg>