<svg id="Capa_1" enable-background="new 0 0 512 512" height="512" viewBox="0 0 512 512" width="512" xmlns="http://www.w3.org/2000/svg" xmlns:xlink="http://www.w3.org/1999/xlink"><linearGradient id="SVGID_1_" gradientUnits="userSpaceOnUse" x1="256" x2="256" y1="512" y2="0"><stop offset="0" stop-color="#fd3a84"/><stop offset="1" stop-color="#ffa68d"/></linearGradient><g><g><g><path d="m256 0c-140.959 0-256 115.05-256 256 0 140.959 115.05 256 256 256 140.959 0 256-115.05 256-256 0-140.959-115.05-256-256-256zm0 482c-124.617 0-226-101.383-226-226s101.383-226 226-226 226 101.383 226 226-101.383 226-226 226zm-49.394-266.606-19.393-19.394 19.394-19.394c5.858-5.858 5.858-15.355 0-21.213-5.857-5.858-15.355-5.858-21.213 0l-19.394 19.394-19.394-19.394c-5.857-5.858-15.355-5.858-21.213 0s-5.858 15.355 0 21.213l19.394 19.394-19.394 19.394c-5.858 5.858-5.858 15.355 0 21.213 5.857 5.857 15.355 5.858 21.213 0l19.394-19.394 19.394 19.394c5.857 5.857 15.355 5.858 21.213 0 5.857-5.858 5.857-15.356-.001-21.213zm49.394 55.606c-31.009 0-60 30.539-60 75 0 44.903 29.308 75 60 75 31.009 0 60-30.539 60-75 0-44.903-29.308-75-60-75zm0 120c-16.262 0-30-20.607-30-45s13.738-45 30-45 30 20.607 30 45-13.738 45-30 45zm130.606-235.606c-5.857-5.858-15.355-5.858-21.213 0l-19.393 19.393-19.394-19.394c-5.857-5.858-15.355-5.858-21.213 0s-5.858 15.355 0 21.213l19.394 19.394-19.394 19.394c-5.858 5.858-5.858 15.355 0 21.213 5.857 5.857 15.355 5.858 21.213 0l19.394-19.394 19.394 19.394c5.857 5.857 15.355 5.858 21.213 0s5.858-15.355 0-21.213l-19.394-19.394 19.394-19.394c5.857-5.857 5.857-15.355-.001-21.212z" fill="url(#SVGID_1_)"/></g></g></g></svg>