<svg id="Capa_1" enable-background="new 0 0 512 512" height="512" viewBox="0 0 512 512" width="512" xmlns="http://www.w3.org/2000/svg" xmlns:xlink="http://www.w3.org/1999/xlink"><linearGradient id="SVGID_1_" gradientUnits="userSpaceOnUse" x1="256" x2="256" y1="512" y2="0"><stop offset="0" stop-color="#00b59c"/><stop offset="1" stop-color="#9cffac"/></linearGradient><g><g><g><path d="m241 271c-8.284 0-15 6.716-15 15s6.716 15 15 15c8.271 0 15 6.729 15 15s-6.729 15-15 15c-8.284 0-15 6.716-15 15s6.716 15 15 15c8.271 0 15 6.729 15 15s-6.729 15-15 15c-8.284 0-15 6.716-15 15s6.716 15 15 15c24.813 0 45-20.187 45-45 0-11.517-4.354-22.032-11.495-30 7.142-7.968 11.495-18.483 11.495-30 0-24.813-20.187-45-45-45zm-75-120c-33.084 0-60 26.916-60 60 0 8.284 6.716 15 15 15s15-6.716 15-15c0-16.542 13.458-30 30-30s30 13.458 30 30c0 8.284 6.716 15 15 15s15-6.716 15-15c0-33.084-26.916-60-60-60zm180 30c16.542 0 30 13.458 30 30 0 8.284 6.716 15 15 15s15-6.716 15-15c0-33.084-26.916-60-60-60s-60 26.916-60 60c0 8.284 6.716 15 15 15s15-6.716 15-15c0-16.542 13.458-30 30-30zm-90-181c-140.959 0-256 115.049-256 256 0 140.959 115.049 256 256 256 140.959 0 256-115.049 256-256 0-140.959-115.049-256-256-256zm0 482c-124.617 0-226-101.383-226-226s101.383-226 226-226 226 101.383 226 226-101.383 226-226 226zm142.5-226c-9.024 0-16.589 3.087-22.5 7.167-5.911-4.08-13.476-7.167-22.5-7.167-21.028 0-37.5 19.766-37.5 45 0 15.665 6.803 45.966 52.364 72.911 2.354 1.393 4.995 2.089 7.636 2.089s5.281-.696 7.636-2.089c45.561-26.945 52.364-57.246 52.364-72.911 0-25.234-16.472-45-37.5-45zm-22.5 87.237c-19.179-13.114-30-28.221-30-42.237 0-8.585 3.96-15 7.5-15 5.415 0 8.92 5.085 9.468 5.937 2.585 4.937 7.451 8.035 13.032 8.035s10.447-3.098 13.032-8.035c.548-.851 4.053-5.937 9.468-5.937 3.54 0 7.5 6.415 7.5 15 0 14.016-10.821 29.123-30 42.237z" fill="url(#SVGID_1_)"/></g></g></g></svg>