<svg id="Capa_1" enable-background="new 0 0 512 512" height="512" viewBox="0 0 512 512" width="512" xmlns="http://www.w3.org/2000/svg" xmlns:xlink="http://www.w3.org/1999/xlink"><linearGradient id="SVGID_1_" gradientUnits="userSpaceOnUse" x1="256" x2="256" y1="512" y2="0"><stop offset="0" stop-color="#fd5900"/><stop offset="1" stop-color="#ffde00"/></linearGradient><g><g><g><path d="m353.5 121c-9.024 0-16.589 3.087-22.5 7.167-5.911-4.08-13.476-7.167-22.5-7.167-21.028 0-37.5 19.766-37.5 45 0 15.665 6.803 45.966 52.364 72.911 2.354 1.393 4.995 2.089 7.636 2.089s5.281-.696 7.636-2.089c45.561-26.945 52.364-57.246 52.364-72.911 0-25.234-16.472-45-37.5-45zm-22.5 87.237c-19.179-13.114-30-28.221-30-42.237 0-8.585 3.96-15 7.5-15 5.415 0 8.92 5.085 9.468 5.937 2.585 4.937 7.451 8.035 13.032 8.035s10.447-3.098 13.032-8.035c.548-.851 4.053-5.937 9.468-5.937 3.54 0 7.5 6.415 7.5 15 0 14.016-10.821 29.123-30 42.237zm-157.636 30.674c2.354 1.393 4.995 2.089 7.636 2.089s5.281-.696 7.636-2.089c45.561-26.945 52.364-57.246 52.364-72.911 0-25.234-16.472-45-37.5-45-9.024 0-16.589 3.087-22.5 7.167-5.911-4.08-13.476-7.167-22.5-7.167-21.028 0-37.5 19.766-37.5 45 0 15.665 6.803 45.966 52.364 72.911zm-14.864-87.911c5.415 0 8.92 5.085 9.468 5.937 2.585 4.937 7.451 8.035 13.032 8.035s10.447-3.098 13.032-8.035c.548-.851 4.053-5.937 9.468-5.937 3.54 0 7.5 6.415 7.5 15 0 14.016-10.821 29.123-30 42.237-19.179-13.114-30-28.221-30-42.237 0-8.585 3.96-15 7.5-15zm217.5 120h-240c-8.284 0-15 6.716-15 15 0 74.439 60.561 135 135 135s135-60.561 135-135c0-8.284-6.716-15-15-15zm-120 120c-52.805 0-96.631-39.183-103.932-90h207.863c-7.3 50.817-51.126 90-103.931 90zm0-391c-140.959 0-256 115.049-256 256 0 140.959 115.049 256 256 256 140.959 0 256-115.049 256-256 0-140.959-115.049-256-256-256zm0 482c-124.617 0-226-101.383-226-226s101.383-226 226-226 226 101.383 226 226-101.383 226-226 226z" fill="url(#SVGID_1_)"/></g></g></g></svg>