<svg id="Capa_1" enable-background="new 0 0 512 512" height="512" viewBox="0 0 512 512" width="512" xmlns="http://www.w3.org/2000/svg" xmlns:xlink="http://www.w3.org/1999/xlink"><linearGradient id="SVGID_1_" gradientUnits="userSpaceOnUse" x1="256" x2="256" y1="512" y2="0"><stop offset="0" stop-color="#a93aff"/><stop offset="1" stop-color="#ff81ff"/></linearGradient><g><g><g><path d="m256 0c-140.959 0-256 115.05-256 256 0 140.959 115.05 256 256 256 140.959 0 256-115.05 256-256 0-140.959-115.05-256-256-256zm0 482c-124.617 0-226-101.383-226-226s101.383-226 226-226 226 101.383 226 226-101.383 226-226 226zm-130.606-275.394c5.857 5.857 15.355 5.858 21.213 0l19.393-19.393 19.394 19.394c5.857 5.857 15.355 5.858 21.213 0s5.858-15.355 0-21.213l-19.394-19.394 19.394-19.394c5.858-5.858 5.858-15.355 0-21.213-5.857-5.858-15.355-5.858-21.213 0l-19.394 19.394-19.394-19.394c-5.857-5.858-15.355-5.858-21.213 0s-5.858 15.355 0 21.213l19.394 19.394-19.394 19.394c-5.857 5.857-5.857 15.355.001 21.212zm180 0c5.857 5.857 15.355 5.858 21.213 0l19.393-19.393 19.394 19.394c5.857 5.857 15.355 5.858 21.213 0s5.858-15.355 0-21.213l-19.394-19.394 19.394-19.394c5.858-5.858 5.858-15.355 0-21.213-5.857-5.858-15.355-5.858-21.213 0l-19.394 19.394-19.394-19.394c-5.857-5.858-15.355-5.858-21.213 0s-5.858 15.355 0 21.213l19.394 19.394-19.394 19.394c-5.857 5.857-5.857 15.355.001 21.212zm70.606 64.394h-240c-8.284 0-15 6.716-15 15s6.716 15 15 15h45v45c0 41.355 33.645 75 75 75s75-33.645 75-75v-45h45c8.284 0 15-6.716 15-15s-6.716-15-15-15zm-75 75c0 24.813-20.187 45-45 45s-45-20.187-45-45v-45h90z" fill="url(#SVGID_1_)"/></g></g></g></svg>