<svg id="Capa_1" enable-background="new 0 0 512 512" height="512" viewBox="0 0 512 512" width="512" xmlns="http://www.w3.org/2000/svg" xmlns:xlink="http://www.w3.org/1999/xlink"><linearGradient id="SVGID_1_" gradientUnits="userSpaceOnUse" x1="256" x2="256" y1="512" y2="0"><stop offset="0" stop-color="#00b59c"/><stop offset="1" stop-color="#9cffac"/></linearGradient><g><g><g><path d="m166 241c24.813 0 45-20.187 45-45s-20.187-45-45-45-45 20.187-45 45 20.187 45 45 45zm0-60c8.271 0 15 6.729 15 15s-6.729 15-15 15-15-6.729-15-15 6.729-15 15-15zm180-30c-24.813 0-45 20.187-45 45s20.187 45 45 45 45-20.187 45-45-20.187-45-45-45zm0 60c-8.271 0-15-6.729-15-15s6.729-15 15-15 15 6.729 15 15-6.729 15-15 15zm-90-211c-140.95 0-256 115.041-256 256 0 140.95 115.041 256 256 256 140.95 0 256-115.041 256-256 0-140.95-115.041-256-256-256zm0 482c-124.617 0-226-101.383-226-226s101.383-226 226-226 226 101.383 226 226-101.383 226-226 226zm109.394-176.606-19.394 19.393-19.394-19.393c-5.857-5.858-15.355-5.858-21.213 0l-19.393 19.393-19.394-19.393c-5.857-5.858-15.355-5.858-21.213 0l-19.393 19.393-19.394-19.393c-5.857-5.858-15.355-5.858-21.213 0l-19.393 19.393-19.394-19.393c-5.857-5.858-15.355-5.858-21.213 0s-5.858 15.355 0 21.213l30 30c5.857 5.858 15.355 5.858 21.213 0l19.394-19.394 19.394 19.393c5.857 5.858 15.355 5.858 21.213 0l19.393-19.393 19.394 19.393c5.857 5.858 15.355 5.858 21.213 0l19.393-19.393 19.394 19.393c5.858 5.858 15.356 5.857 21.213 0l30-30c5.858-5.858 5.858-15.355 0-21.213s-15.356-5.858-21.213.001z" fill="url(#SVGID_1_)"/></g></g></g></svg>