<svg id="Capa_1" enable-background="new 0 0 512 512" height="512" viewBox="0 0 512 512" width="512" xmlns="http://www.w3.org/2000/svg" xmlns:xlink="http://www.w3.org/1999/xlink"><linearGradient id="SVGID_1_" gradientUnits="userSpaceOnUse" x1="256" x2="256" y1="512" y2="0"><stop offset="0" stop-color="#5558ff"/><stop offset="1" stop-color="#00c0ff"/></linearGradient><g><g><g><path d="m108.658 247.475c-10.455 15.109-32.658 50.11-32.658 68.525 0 24.813 20.187 45 45 45s45-20.187 45-45c0-18.412-22.194-53.403-32.658-68.525-2.801-4.055-7.414-6.475-12.342-6.475s-9.541 2.42-12.342 6.475zm27.342 68.537c-.007 8.266-6.733 14.988-15 14.988-8.271 0-15-6.729-15-14.982.122-4.585 6.361-17.656 15-32.211 8.635 14.549 14.872 27.614 15 32.205zm0-90.012c0-16.542 13.458-30 30-30s30 13.458 30 30c0 8.284 6.716 15 15 15s15-6.716 15-15c0-33.084-26.916-60-60-60s-60 26.916-60 60c0 8.284 6.716 15 15 15s15-6.716 15-15zm120-226c-140.951 0-256 115.041-256 256 0 140.951 115.041 256 256 256 140.951 0 256-115.041 256-256 0-140.951-115.041-256-256-256zm0 482c-124.617 0-226-101.383-226-226s101.383-226 226-226 226 101.383 226 226-101.383 226-226 226zm90-316c-33.084 0-60 26.916-60 60 0 8.284 6.716 15 15 15s15-6.716 15-15c0-16.542 13.458-30 30-30s30 13.458 30 30c0 8.284 6.716 15 15 15s15-6.716 15-15c0-33.084-26.916-60-60-60zm-90 165c-28.178 0-55.094 13.458-72 36-4.971 6.627-3.627 16.029 3 21 6.628 4.971 16.03 3.627 21-3 11.271-15.028 29.215-24 48-24s36.729 8.972 48 24c4.939 6.585 14.33 8.002 21 3 6.627-4.971 7.971-14.373 3-21-16.906-22.542-43.822-36-72-36z" fill="url(#SVGID_1_)"/></g></g></g></svg>