<svg id="Capa_1" enable-background="new 0 0 512 512" height="512" viewBox="0 0 512 512" width="512" xmlns="http://www.w3.org/2000/svg" xmlns:xlink="http://www.w3.org/1999/xlink"><linearGradient id="SVGID_1_" gradientUnits="userSpaceOnUse" x1="256" x2="256" y1="512" y2="0"><stop offset="0" stop-color="#fd3a84"/><stop offset="1" stop-color="#ffa68d"/></linearGradient><g><g><g><path d="m202.708 242.583-60-30c-7.406-3.703-16.418-.702-20.124 6.708-3.705 7.41-.702 16.419 6.708 20.125l33.167 16.584-33.167 16.583c-7.41 3.705-10.413 12.715-6.708 20.125 3.705 7.412 12.716 10.413 20.124 6.708l60-30c11.167-5.583 10.88-21.365 0-26.833zm53.292-242.583c-140.959 0-256 115.049-256 256 0 140.959 115.049 256 256 256 140.959 0 256-115.049 256-256 0-140.959-115.049-256-256-256zm0 482c-124.617 0-226-101.383-226-226s101.383-226 226-226 226 101.383 226 226-101.383 226-226 226zm60-121h-120c-8.284 0-15 6.716-15 15s6.716 15 15 15h120c8.284 0 15-6.716 15-15s-6.716-15-15-15zm-180-180c41.355 0 75-33.645 75-75 0-8.284-6.716-15-15-15s-15 6.716-15 15c0 24.813-20.187 45-45 45-8.284 0-15 6.716-15 15s6.716 15 15 15zm240-30c-24.813 0-45-20.187-45-45 0-8.284-6.716-15-15-15s-15 6.716-15 15c0 41.355 33.645 75 75 75 8.284 0 15-6.716 15-15s-6.716-15-15-15zm13.416 68.292c-3.704-7.41-12.713-10.414-20.124-6.708l-60 30c-10.647 5.324-11.399 20.979 0 26.833l60 30c7.424 3.712 16.427.688 20.124-6.708 3.705-7.41.702-16.419-6.708-20.125l-33.167-16.584 33.167-16.583c7.41-3.706 10.413-12.715 6.708-20.125z" fill="url(#SVGID_1_)"/></g></g></g></svg>