<svg id="Capa_1" enable-background="new 0 0 512 512" height="512" viewBox="0 0 512 512" width="512" xmlns="http://www.w3.org/2000/svg" xmlns:xlink="http://www.w3.org/1999/xlink"><linearGradient id="SVGID_1_" gradientUnits="userSpaceOnUse" x1="256" x2="256" y1="512" y2="0"><stop offset="0" stop-color="#5558ff"/><stop offset="1" stop-color="#00c0ff"/></linearGradient><g><g><g><path d="m151 166c0 8.284 6.716 15 15 15s15-6.716 15-15-6.716-15-15-15-15 6.716-15 15zm-45 120h-30c-8.284 0-15 6.716-15 15s6.716 15 15 15h30c8.284 0 15-6.716 15-15s-6.716-15-15-15zm135-90c0-41.355-33.645-75-75-75s-75 33.645-75 75 33.645 75 75 75 75-33.645 75-75zm-75 45c-24.813 0-45-20.187-45-45s20.187-45 45-45 45 20.187 45 45-20.187 45-45 45zm165-75c0 8.284 6.716 15 15 15s15-6.716 15-15-6.716-15-15-15-15 6.716-15 15zm-75-166c-140.959 0-256 115.05-256 256 0 140.959 115.05 256 256 256 140.959 0 256-115.05 256-256 0-140.959-115.05-256-256-256zm0 482c-124.617 0-226-101.383-226-226s101.383-226 226-226 226 101.383 226 226-101.383 226-226 226zm165-286c0-41.355-33.645-75-75-75s-75 33.645-75 75 33.645 75 75 75 75-33.645 75-75zm-75 45c-24.813 0-45-20.187-45-45s20.187-45 45-45 45 20.187 45 45-20.187 45-45 45zm-30 60c-8.284 0-15 6.716-15 15 0 8.271-6.729 15-15 15s-15-6.729-15-15c0-8.284-6.716-15-15-15s-15 6.716-15 15c0 8.271-6.729 15-15 15s-15-6.729-15-15c0-8.284-6.716-15-15-15s-15 6.716-15 15c0 24.813 20.187 45 45 45 11.517 0 22.032-4.354 30-11.495 7.968 7.142 18.483 11.495 30 11.495 24.813 0 45-20.187 45-45 0-8.284-6.716-15-15-15zm120-15h-30c-8.284 0-15 6.716-15 15s6.716 15 15 15h30c8.284 0 15-6.716 15-15s-6.716-15-15-15z" fill="url(#SVGID_1_)"/></g></g></g></svg>