<svg id="Capa_1" enable-background="new 0 0 512.002 512.002" height="512" viewBox="0 0 512.002 512.002" width="512" xmlns="http://www.w3.org/2000/svg" xmlns:xlink="http://www.w3.org/1999/xlink"><linearGradient id="SVGID_1_" gradientUnits="userSpaceOnUse" x1="256.001" x2="256.001" y1="512.002" y2="0"><stop offset="0" stop-color="#fd3a84"/><stop offset="1" stop-color="#ffa68d"/></linearGradient><g><g><g><path d="m127.93 362.859-45.103 45.103c-5.858 5.858-5.858 15.355 0 21.213 5.857 5.857 15.355 5.858 21.213 0l45.103-45.103c5.858-5.858 5.858-15.355 0-21.213s-15.356-5.858-21.213 0zm261.488-203.567c-3.705-7.41-12.716-10.415-20.125-6.708l-60 30c-11.019 5.49-11.015 21.457 0 26.833l60 30c7.424 3.712 16.427.688 20.125-6.708 3.705-7.41.701-16.419-6.708-20.125l-33.167-16.584 33.167-16.583c7.41-3.706 10.413-12.715 6.708-20.125zm-133.416-159.292c-140.959 0-256 115.05-256 256 0 33.468 7.041 66.737 20.933 99.094l-13.548 7.982c-6.145 3.62-8.891 11.066-6.568 17.809l31 90c1.503 4.365 4.933 7.794 9.297 9.297 94.297 32.175 90.147 31.82 94.882 31.82 5.226 0 10.229-2.742 12.974-7.469l7.843-13.504c32.379 13.918 65.679 20.971 99.187 20.971 140.959 0 256-115.05 256-256 0-140.959-115.05-256-256-256zm-126.777 478.801-71.423-24.601-24.627-71.497c146.168-86.118 130.677-77.249 135.24-79.057 3.734-1.478 6.685-2.646 12.586-2.646 16.542 0 30 13.458 30 30 0 3.643-.507 6.814-1.548 9.662-10.271 17.685-67.624 116.437-80.228 138.139zm126.777 3.199c-28.248 0-56.429-5.773-83.989-17.138l61.502-105.896c1.103-.64 2.149-1.416 3.093-2.36l19.394-19.393 19.394 19.393c5.857 5.858 15.355 5.858 21.213 0l19.394-19.393 19.394 19.393c2.929 2.929 6.768 4.394 10.606 4.394s7.678-1.464 10.606-4.394l30-30c5.858-5.858 5.858-15.355 0-21.213-5.857-5.858-15.355-5.858-21.213 0l-19.394 19.393-19.394-19.393c-5.857-5.858-15.355-5.858-21.213 0l-19.394 19.393-19.394-19.393c-5.857-5.858-15.355-5.858-21.213 0l-7.27 7.27c-7.766-24.141-30.432-41.663-57.122-41.663-11.624 0-18.848 2.86-23.629 4.752-8.749 3.462 9.269-6.336-110.343 63.967-11.292-27.48-17.029-55.57-17.029-83.72 0-124.617 101.383-226 226-226s226 101.383 226 226-101.382 226.001-225.999 226.001zm-53.292-299.417-60-30c-7.409-3.704-16.42-.702-20.125 6.708s-.701 16.419 6.708 20.125l33.168 16.584-33.167 16.583c-7.41 3.705-10.413 12.715-6.708 20.125 3.706 7.411 12.717 10.413 20.125 6.708l60-30c11.08-5.486 10.962-21.331-.001-26.833z" fill="url(#SVGID_1_)"/></g></g></g></svg>