<svg id="Capa_1" enable-background="new 0 0 512 512" height="512" viewBox="0 0 512 512" width="512" xmlns="http://www.w3.org/2000/svg" xmlns:xlink="http://www.w3.org/1999/xlink"><linearGradient id="SVGID_1_" gradientUnits="userSpaceOnUse" x1="256" x2="256" y1="512" y2="0"><stop offset="0" stop-color="#00b59c"/><stop offset="1" stop-color="#9cffac"/></linearGradient><g><g><g><path d="m136 211c0-16.542 13.458-30 30-30s30 13.458 30 30c0 8.284 6.716 15 15 15s15-6.716 15-15c0-33.084-26.916-60-60-60s-60 26.916-60 60c0 8.284 6.716 15 15 15s15-6.716 15-15zm165 15c8.284 0 15-6.716 15-15 0-16.542 13.458-30 30-30s30 13.458 30 30c0 8.284 6.716 15 15 15s15-6.716 15-15c0-33.084-26.916-60-60-60s-60 26.916-60 60c0 8.284 6.716 15 15 15zm-45-226c-140.959 0-256 115.05-256 256 0 140.959 115.05 256 256 256 140.959 0 256-115.049 256-256 0-140.959-115.049-256-256-256zm0 482c-124.617 0-226-101.383-226-226s101.383-226 226-226 226 101.383 226 226-101.383 226-226 226zm137.886-194.181-5.468-5.468c.619-3.123 1.132-6.286 1.533-9.487 1.029-8.22-4.8-15.718-13.02-16.748-8.212-1.026-15.719 4.799-16.748 13.02-6.559 52.371-51.348 91.864-104.183 91.864s-97.624-39.493-104.184-91.864c-1.029-8.22-8.522-14.049-16.748-13.02-8.22 1.03-14.049 8.528-13.02 16.748 8.436 67.349 66.023 118.136 133.952 118.136 8.991 0 17.798-.898 26.336-2.598l5.484 5.484c29.309 29.311 76.751 29.313 106.065 0 29.244-29.242 29.244-76.824.001-106.067zm-21.213 84.854c-15.868 15.867-40.443 17.337-57.921 4.835 27.203-13.197 49.474-35.284 62.781-62.711 12.487 17.561 10.874 42.141-4.86 57.876z" fill="url(#SVGID_1_)"/></g></g></g></svg>