<svg id="Capa_1" enable-background="new 0 0 512 512" height="512" viewBox="0 0 512 512" width="512" xmlns="http://www.w3.org/2000/svg" xmlns:xlink="http://www.w3.org/1999/xlink"><linearGradient id="SVGID_1_" gradientUnits="userSpaceOnUse" x1="256" x2="256" y1="512" y2="0"><stop offset="0" stop-color="#fd5900"/><stop offset="1" stop-color="#ffde00"/></linearGradient><g><g><g><path d="m346 301c-8.284 0-15 6.716-15 15 0 41.355-33.645 75-75 75s-75-33.645-75-75c0-8.284-6.716-15-15-15s-15 6.716-15 15c0 57.897 47.103 105 105 105s105-47.103 105-105c0-8.284-6.716-15-15-15zm138.023-178.754c6.92-3.044 27.977-12.307 27.977-31.246 0-20.301-23.736-30.447-41.591-36.313-19.602-6.439-46.977-11.953-79.403-16.014-40.21-25.185-86.621-38.673-135.006-38.673s-94.796 13.488-135.006 38.674c-32.426 4.061-59.802 9.575-79.403 16.014-17.855 5.865-41.591 16.011-41.591 36.312 0 18.939 21.057 28.202 27.977 31.246 2.472 1.087 5.129 2.151 7.968 3.191-23.434 39.169-35.945 83.952-35.945 130.563 0 140.959 115.049 256 256 256 140.959 0 256-115.049 256-256 0-46.611-12.511-91.394-35.944-130.563 2.838-1.04 5.496-2.104 7.967-3.191zm-4.761-31.267c-3.289 2.098-9.501 5.232-20.792 8.757-6.1-7.852-12.698-15.396-19.764-22.608 22.733 5.165 35.003 10.361 40.556 13.851zm-223.262-60.979c75.517 0 134.407 36.483 170.257 77.544-52.258 10.047-117.481 13.456-170.257 13.456-52.801 0-118.014-3.412-170.257-13.456 35.817-41.023 94.746-77.544 170.257-77.544zm-223.262 60.979c5.552-3.491 17.823-8.686 40.555-13.852-7.065 7.213-13.664 14.758-19.763 22.609-11.29-3.525-17.503-6.658-20.792-8.757zm449.262 165.021c0 124.617-101.383 226-226 226s-226-101.383-226-226c0-44.898 13.164-86.779 35.83-121.991 56.357 12.897 131.785 16.991 190.17 16.991 58.179 0 133.813-4.094 190.17-16.991 22.666 35.212 35.83 77.093 35.83 121.991zm-271-30c0-24.813-20.187-45-45-45s-45 20.187-45 45 20.187 45 45 45 45-20.187 45-45zm-60 0c0-8.271 6.729-15 15-15s15 6.729 15 15-6.729 15-15 15-15-6.729-15-15zm195-45c-24.813 0-45 20.187-45 45s20.187 45 45 45 45-20.187 45-45-20.187-45-45-45zm0 60c-8.271 0-15-6.729-15-15s6.729-15 15-15 15 6.729 15 15-6.729 15-15 15z" fill="url(#SVGID_1_)"/></g></g></g></svg>