<svg id="Capa_1" enable-background="new 0 0 512 512" height="512" viewBox="0 0 512 512" width="512" xmlns="http://www.w3.org/2000/svg" xmlns:xlink="http://www.w3.org/1999/xlink"><linearGradient id="SVGID_1_" gradientUnits="userSpaceOnUse" x1="256" x2="256" y1="512" y2="0"><stop offset="0" stop-color="#a93aff"/><stop offset="1" stop-color="#ff81ff"/></linearGradient><g><g><g><path d="m241 196c0-41.355-33.645-75-75-75s-75 33.645-75 75 33.645 75 75 75 75-33.645 75-75zm-75 45c-24.813 0-45-20.187-45-45s20.187-45 45-45 45 20.187 45 45-20.187 45-45 45zm0-60c-8.284 0-15 6.716-15 15s6.716 15 15 15 15-6.716 15-15-6.716-15-15-15zm180-60c-41.355 0-75 33.645-75 75s33.645 75 75 75 75-33.645 75-75-33.645-75-75-75zm0 120c-24.813 0-45-20.187-45-45s20.187-45 45-45 45 20.187 45 45-20.187 45-45 45zm-90-241c-140.951 0-256 115.041-256 256 0 140.951 115.041 256 256 256 140.951 0 256-115.041 256-256 0-140.951-115.041-256-256-256zm0 482c-124.617 0-226-101.383-226-226s101.383-226 226-226 226 101.383 226 226-101.383 226-226 226zm0-211c-41.355 0-75 33.645-75 75v30c0 41.355 33.645 75 75 75s75-33.645 75-75v-30c0-41.355-33.645-75-75-75zm45 105c0 24.813-20.187 45-45 45s-45-20.187-45-45v-30c0-24.813 20.187-45 45-45s45 20.187 45 45zm45-195c-8.284 0-15 6.716-15 15s6.716 15 15 15 15-6.716 15-15-6.716-15-15-15z" fill="url(#SVGID_1_)"/></g></g></g></svg>