<svg id="Capa_1" enable-background="new 0 0 512 512" height="512" viewBox="0 0 512 512" width="512" xmlns="http://www.w3.org/2000/svg" xmlns:xlink="http://www.w3.org/1999/xlink"><linearGradient id="SVGID_1_" gradientUnits="userSpaceOnUse" x1="256" x2="256" y1="512" y2="0"><stop offset="0" stop-color="#fd3a84"/><stop offset="1" stop-color="#ffa68d"/></linearGradient><g><g><g><path d="m316 173.971c25.859 0 50.723-9.518 70.01-26.799 6.17-5.528 6.69-15.012 1.162-21.181s-15.012-6.689-21.181-1.162c-13.776 12.344-31.53 19.142-49.99 19.142-8.284 0-15 6.716-15 15s6.715 15 14.999 15zm-190.01-26.8c19.287 17.282 44.15 26.799 70.01 26.799 8.284 0 15-6.716 15-15s-6.716-15-15-15c-18.46 0-36.214-6.798-49.99-19.142-6.168-5.528-15.652-5.009-21.181 1.162-5.529 6.17-5.009 15.653 1.161 21.181zm220.01 63.829c-24.813 0-45 20.187-45 45s20.187 45 45 45 45-20.187 45-45-20.187-45-45-45zm0 60c-8.271 0-15-6.729-15-15s6.729-15 15-15 15 6.729 15 15-6.729 15-15 15zm-90-271c-140.959 0-256 115.05-256 256 0 23.561 3.211 46.855 9.543 69.322-8.287 20.391-9.543 29.956-9.543 35.678 0 33.424 28.112 60 61 60 .192 0 .382-.013.574-.015 47.234 55.625 117.053 91.015 194.426 91.015 140.959 0 256-115.05 256-256 0-140.959-115.05-256-256-256zm-195 391c-16.804 0-31-13.738-31-30 0-10.201 14.356-42.342 30.853-73.605 16.125 31.256 30.147 63.378 30.147 73.605 0 16.542-13.458 30-30 30zm195 91c-61.679 0-119.915-25.468-162.661-70.501 16.619-10.681 27.661-29.319 27.661-50.499 0-8.15-2.489-24.106-24.009-68.377-11.314-23.275-22.443-43.132-22.911-43.966-2.643-4.707-7.611-7.631-13.009-7.656-.024 0-.047 0-.071 0-5.371 0-10.334 2.872-13.009 7.533-.386.672-7.845 13.692-16.776 30.896-.803-7.758-1.215-15.576-1.215-23.43 0-124.617 101.383-226 226-226s226 101.383 226 226-101.383 226-226 226zm-45-226c0-24.813-20.187-45-45-45s-45 20.187-45 45 20.187 45 45 45 45-20.187 45-45zm-60 0c0-8.271 6.729-15 15-15s15 6.729 15 15-6.729 15-15 15-15-6.729-15-15zm185.126 79.748c-51.67-25.835-108.582-25.835-160.252 0-26.285 13.142-29.923 40.266-19.932 60.267 10.853 21.727 35.389 32.61 60.189 20.235 50.925-25.486 75.257 4.75 99.839 4.75 21.269 0 38.849-13.935 43.745-34.676 4.899-20.747-4.581-41.073-23.589-50.576zm-5.608 43.684c-.641 2.714-3.583 11.568-14.547 11.568-11.433 0-51.73-32.374-113.25-1.586-12.602 6.287-18.821-4.565-19.94-6.805-1.12-2.241-6.067-13.74 6.51-20.028 21.509-10.755 44.11-16.132 66.71-16.132s45.201 5.377 66.71 16.132c9.781 4.891 8.449 14.134 7.807 16.851z" fill="url(#SVGID_1_)"/></g></g></g></svg>