<svg id="Capa_1" enable-background="new 0 0 512 512" height="512" viewBox="0 0 512 512" width="512" xmlns="http://www.w3.org/2000/svg" xmlns:xlink="http://www.w3.org/1999/xlink"><linearGradient id="SVGID_1_" gradientUnits="userSpaceOnUse" x1="256" x2="256" y1="512" y2="0"><stop offset="0" stop-color="#00b59c"/><stop offset="1" stop-color="#9cffac"/></linearGradient><g><g><g><path d="m180.009 130.637c-2.962-7.736-11.635-11.608-19.372-8.645l-60 22.971c-7.736 2.962-11.607 11.635-8.646 19.372 2.978 7.775 11.672 11.594 19.372 8.645l60-22.971c7.737-2.963 11.608-11.635 8.646-19.372zm23.514 249.745c-16.071-6.81-30.516-16.558-42.932-28.974-5.857-5.857-15.355-5.857-21.213 0-5.858 5.858-5.858 15.355 0 21.213 15.157 15.156 32.8 27.061 52.439 35.383 7.658 3.244 16.444-.361 19.664-7.959 3.233-7.628-.33-16.431-7.958-19.663zm-37.523-199.382c-24.813 0-45 20.187-45 45s20.187 45 45 45 45-20.187 45-45-20.187-45-45-45zm0 60c-8.271 0-15-6.729-15-15s6.729-15 15-15 15 6.729 15 15-6.729 15-15 15zm346 15c0-140.959-115.049-256-256-256-140.959 0-256 115.049-256 256 0 140.959 115.049 256 256 256 64.183 0 125.146-24.659 171.385-66.29 7.761 3.499 16.033 5.29 24.615 5.29 33.084 0 60-26.916 60-60 0-16.368-6.476-31.392-17.377-42.337 11.525-29.487 17.377-60.6 17.377-92.663zm-72.757 162.164c-.001 0-.001 0-.002-.001-.125-.059-6.194-2.894-189.602-88.571-5.248-2.465-8.639-7.8-8.639-13.592 0-8.271 6.729-15 15-15 1.498 0 2.972.217 4.397.651l200.354 60.641c12.511 3.807 21.249 15.612 21.249 28.708 0 21.925-22.908 36.487-42.757 27.164zm29.133-84.908-199.269-60.313c-4.239-1.289-8.649-1.943-13.107-1.943-24.813 0-45 20.187-45 45 0 17.368 10.161 33.362 25.914 40.76l160.563 75.006c-40.149 32.136-90.604 50.234-141.477 50.234-124.617 0-226-101.383-226-226s101.383-226 226-226 226 101.383 226 226c0 26.674-4.589 52.591-13.624 77.256zm-117.013-211.264c-7.737-2.964-16.409.909-19.372 8.645-2.962 7.737.909 16.41 8.646 19.372l60 22.971c7.703 2.95 16.396-.875 19.372-8.645 2.962-7.737-.909-16.41-8.646-19.372zm-5.363 59.008c-24.813 0-45 20.187-45 45s20.187 45 45 45 45-20.187 45-45-20.187-45-45-45zm0 60c-8.271 0-15-6.729-15-15s6.729-15 15-15 15 6.729 15 15-6.729 15-15 15z" fill="url(#SVGID_1_)"/></g></g></g></svg>